HIERARCHY
ROOT Hip
{
    OFFSET 0.0 0.0 0.0
    CHANNELS 6 Xposition Yposition Zposition Zrotation Xrotation Yrotation
    JOINT RightHip
    {
        OFFSET -6.702904723477252 0.0 0.0
        CHANNELS 3 Zrotation Xrotation Yrotation
        JOINT RightKnee
        {
            OFFSET 0.0 0.0 -23.135301391752574
            CHANNELS 3 Zrotation Xrotation Yrotation
            JOINT RightAnkle
            {
                OFFSET 0.0 0.0 -29.366199440065486
                CHANNELS 3 Zrotation Xrotation Yrotation
                End Site
                {
                    OFFSET 0.0 -11.746479776026195 0.0
                }
            }
        }
    }
    JOINT LeftHip
    {
        OFFSET 6.702904723477252 0.0 0.0
        CHANNELS 3 Zrotation Xrotation Yrotation
        JOINT LeftKnee
        {
            OFFSET 0.0 0.0 -23.135301391752574
            CHANNELS 3 Zrotation Xrotation Yrotation
            JOINT LeftAnkle
            {
                OFFSET 0.0 0.0 -29.366199440065486
                CHANNELS 3 Zrotation Xrotation Yrotation
                End Site
                {
                    OFFSET 0.0 -11.746479776026195 0.0
                }
            }
        }
    }
    JOINT Spine
    {
        OFFSET 0.0 0.0 19.30944724474741
        CHANNELS 3 Zrotation Xrotation Yrotation
        JOINT Thorax
        {
            OFFSET 0.0 0.0 22.139154035956384
            CHANNELS 3 Zrotation Xrotation Yrotation
            JOINT Neck
            {
                OFFSET 0.0 0.0 2.8101344150050207
                CHANNELS 3 Zrotation Xrotation Yrotation
                JOINT Head
                {
                    OFFSET 0.0 0.0 8.344830796704294
                    CHANNELS 3 Zrotation Xrotation Yrotation
                    End Site
                    {
                        OFFSET -3.337932318681718 0.0 0.0
                    }
                }
            }
            JOINT LeftShoulder
            {
                OFFSET 12.158751895224091 0.0 0.0
                CHANNELS 3 Zrotation Xrotation Yrotation
                JOINT LeftElbow
                {
                    OFFSET 22.20874665359871 0.0 0.0
                    CHANNELS 3 Zrotation Xrotation Yrotation
                    JOINT LeftWrist
                    {
                        OFFSET 14.329589936787446 0.0 0.0
                        CHANNELS 3 Zrotation Xrotation Yrotation
                        End Site
                        {
                            OFFSET 5.731835974714978 0.0 0.0
                        }
                    }
                }
            }
            JOINT RightShoulder
            {
                OFFSET -12.158751895224091 0.0 0.0
                CHANNELS 3 Zrotation Xrotation Yrotation
                JOINT RightElbow
                {
                    OFFSET -22.20874665359871 0.0 0.0
                    CHANNELS 3 Zrotation Xrotation Yrotation
                    JOINT RightWrist
                    {
                        OFFSET -14.329589936787446 0.0 0.0
                        CHANNELS 3 Zrotation Xrotation Yrotation
                        End Site
                        {
                            OFFSET -5.731835974714978 0.0 0.0
                        }
                    }
                }
            }
            JOINT Nose
            {
                OFFSET 0.0 0.0 7.959572016232479
                CHANNELS 3 Zrotation Xrotation Yrotation
                End Site
                {
                    OFFSET -3.183828806492992 0.0 0.0
                }
            }
        }
    }
}
MOTION
Frames: 10
Frame Time: 0.03333333333333333
-1.4249486476999893 45.831735162060966 6.600489353280742 0.9987181134981747 -2.8685554243601312 6.29972250635306 -13.383115297700316 -13.239855581552249 4.708283746482671 1.824062941177256 27.142184836385887 -7.348610662065504 0.0 0.0 0.0 0.36957729037459375 -4.6791050581343585 -4.002981505700961 -4.088010595771934 19.46430495677894 11.87917853217106 -1.987846675914698e-16 -5.603591979946491e-34 3.2302508483613845e-16 -6.275782423466663e-17 8.549792313956102 1.7288362635990597e-16 4.94532171155599 -0.01066041302870361 -0.5061286175941305 5.143560480041452 -4.255432778613038 15.40532210039482 -1.5902773407317582e-15 2.896626008095417e-32 -2.0872390097104326e-15 -86.58861726075891 -77.58307048547415 -56.883548298529156 4.289143727270598e-15 5.4600335027860105e-15 -49.821959524206726 0.0 0.0 0.0 82.9377026541178 40.5552011896392 -1.0580982131579995 2.0971137574899284e-14 -1.4409399225801718e-14 111.01360021130344 0.0 0.0 0.0 0.0 0.0 -6.957463365701443e-16
-1.4275855160847435 45.93142359666517 6.579525078039265 1.93135170074066 -2.242456379470102 6.673202244606047 -12.482947996826097 -15.986552747167623 6.521661964995417 1.1436123613477882 31.12227974879382 -9.170469984516346 8.620910738379216e-35 4.969616689786745e-17 -1.987846675914698e-16 1.5090830215951991 -3.948003620794308 -3.8802807879004333 -7.739782238472707 17.872860503247477 12.344666858613762 -3.975693351829396e-16 1.034509288605506e-33 -2.981770013872047e-16 -1.7700681877522811e-16 7.772906919866246 -3.273104255508316e-16 3.948593759696375 0.0013060458347757473 -0.5646706564083048 4.687797408806635 -4.3091767492220265 22.56271089422886 0.0 0.0 2.919649805249713e-16 -82.7708159150029 -77.2071673549011 -52.47017025741402 6.3977207070312956e-15 1.7628265143596467e-14 -49.62312929646853 0.0 0.0 0.0 79.13518426772006 41.18657397547943 -0.34739403992947204 1.0551699801659994e-14 1.5900787472314388e-14 112.86381014389326 3.1805546814635168e-15 0.0 0.0 0.0 0.0 -3.4787316828507215e-16
-1.4301124924609496 46.02695749615074 6.559434493091683 3.9208704398189185 -1.7879618136903743 6.576509989328805 -10.700199602082058 -17.625603694979485 8.419789245459967 -1.665251555755657 32.887087958096856 -10.449455118645293 0.0 0.0 0.0 1.9587187713250478 -4.324241200979533 -3.8663388784157022 -10.141317477549373 17.727344230403705 13.563185366162012 3.975693351829396e-16 -1.7241821476758432e-33 -4.969616689786745e-16 3.129261675539813e-17 7.344904158011394 -4.875431527701414e-16 1.820969292089148 0.018837342822457546 -0.6673752186477275 4.44592819500631 -4.4783890549489005 27.51987854993253 0.0 0.0 -4.4353828956346695e-15 -83.79673797179524 -77.0915211669528 -52.24750808422241 8.384151731509359e-16 1.6738342977818596e-14 -50.34745049272718 0.0 0.0 7.951386703658792e-16 74.94270977518036 43.204488614217205 0.6971609670302161 -8.179161706100291e-16 -7.064747238702322e-15 113.66194235775058 1.5902773407317584e-15 0.0 0.0 0.0 0.0 -3.4787316828507215e-16
-1.4675610669892714 47.44272393882633 6.261701686876594 5.470703214756935 -1.3386547619580749 5.538309209832002 -9.358298564868962 -19.270171855561077 11.14666135522311 -1.5333940831060753 34.09091787048291 -13.599209286273181 0.0 0.0 0.0 3.474096865637973 -5.319293474314807 -4.569728673152842 -11.425799704013567 17.144952824975828 14.111181703892479 -1.987846675914698e-16 -1.0129570117595579e-33 5.839299610499425e-16 7.038554731384183e-16 6.840704017579052 1.5510475345143797e-15 -0.5722129011062046 0.020401223430835707 -0.299588040568913 4.889584822605889 -4.51189304304883 32.6937396611351 0.0 0.0 9.119246625758678e-15 -79.07547043693918 -77.42409312318135 -47.86481461804772 2.4165830393007657e-15 1.6426173219671556e-14 -50.13687971582501 0.0 0.0 7.951386703658792e-16 72.53529516730491 43.408256135443025 0.8315239406854259 1.6017356063160975e-14 1.2168871271284786e-14 111.31997543107275 0.0 -6.3611093629270335e-15 0.0 0.0 0.0 1.2424041724466862e-16
-1.4768817601268998 47.79509848800311 6.187598035170519 6.894638716260947 -0.7904159454973236 5.8499797099224935 -5.481846363748776 -22.05900449504415 14.214344769271491 -4.550472834484363 37.902907295184264 -14.204666058449016 0.0 0.0 0.0 7.5871220934369 -6.015634718558672 -4.789303426293203 -16.06251944667636 16.292021043707305 13.799997148970606 9.93923337957349e-17 6.842847898588503e-34 7.889266495036458e-16 7.558934263222841e-16 6.115532135170277 7.558934263222841e-16 -1.7386827513747192 0.057401402936055494 -0.8020239001244541 3.8802057605260503 -4.306389333514396 36.519949295244636 0.0 0.0 1.4163407565892223e-15 -76.2151753900109 -77.52138361084819 -44.89706516385204 -4.992069446186278e-15 4.329399247146994e-15 -50.45000670241612 0.0 0.0 1.5902773407317584e-15 69.80500630314691 41.02278990467213 0.8471595055019988 2.2934966146313486e-14 -1.2485239280077769e-16 111.99606245697841 -3.1805546814635168e-15 0.0 0.0 0.0 0.0 1.7393658414253607e-16
-1.485241033144833 48.11112595695264 6.12113810058302 7.141462609604483 -0.787049936224635 7.29342789712383 0.5352371741735688 -25.236418042029083 17.826504947467317 -10.638412484932019 43.404904584803965 -13.603098225712268 0.0 0.0 0.0 12.723140526026343 -6.984732124440212 -4.128964440183788 -20.455283835141447 17.121029723350574 14.069635387370163 0.0 0.0 -2.4848083448933725e-17 -1.5019805319996138e-15 5.776501289999504 -1.7901983275057252e-15 -2.2588557271176466 0.16050680966626676 -2.2864544101462387 3.039163691459861 -3.980619655821224 35.95062739849176 -7.951386703658792e-16 -3.0173187584327255e-33 4.3484146035634017e-16 -70.66789203123317 -77.45719880338895 -40.848327006282645 -1.1505494385240622e-15 -2.5340172507550904e-15 -48.84005673807192 0.0 0.0 0.0 68.087368865734 40.31275878907256 0.9396273595655259 -7.937683615775097e-15 5.2949534041265195e-15 112.5882451246426 0.0 0.0 0.0 0.0 0.0 2.7332891793827095e-16
-1.4854355998378617 48.11848167071003 6.119591208925831 7.307573782825418 -0.9781140018331157 9.052513257487083 3.23586855056043 -27.676237763500094 19.510174132583508 -13.873202147058873 48.71774096575186 -12.453475684396818 0.0 0.0 0.0 18.097695614770394 -7.585237537500732 -3.2057084034594086 -27.1138266679064 17.28754171100835 14.581005481341622 -4.9696166897867443e-17 3.106010431116715e-18 6.367321383789266e-16 -1.5711406000278007e-15 6.099502480268611 -4.015167876571621e-16 -1.6672393817452984 0.1984778148901893 -3.699779763978786 1.9253929110017303 -4.593896557444383 34.91872975713339 0.0 0.0 2.435112177995505e-15 -71.92547391986231 -77.27380074279037 -42.06369719031017 7.079615290396241e-15 1.9699357799840362e-14 -48.24910432195045 0.0 0.0 1.5902773407317582e-15 64.1689011149315 40.77714063965138 2.3034433558531853 -1.146592690194415e-14 1.9896065542420121e-16 110.63163285923218 3.1805546814635168e-15 0.0 0.0 -1.034509288605506e-33 -7.951386703658792e-16 -1.4908850069360235e-16
-1.4735373414414958 47.66866067816149 6.21418764967268 7.411462859922292 -1.2229375611886701 9.915672046367199 7.029996414993263 -29.39253897707803 21.032094595806182 -20.238857786277816 53.5221073286079 -8.644619710696164 0.0 0.0 0.0 21.75202206401894 -8.458905808456949 -2.440492323224418 -31.103173873946634 18.221989283917512 15.107634793355576 2.4848083448933725e-16 -1.5902773407317584e-15 -9.50439191921715e-16 -2.4734060442596454e-15 6.400439333845746 1.5070735111187906e-15 -2.223033450639579 0.2384306239441986 -4.661848192848212 2.005013692694435 -4.869198365136449 32.861213590051655 0.0 0.0 -7.727753952618388e-15 -72.28148126640278 -77.82692379869233 -43.832601350247195 -6.539229156555895e-15 9.502300957098711e-16 -47.95309285846094 0.0 0.0 7.951386703658792e-16 63.100045359959104 39.85785223781483 2.932178250057461 2.029204587340991e-14 1.7279831088257817e-15 112.41502155099693 0.0 0.0 0.0 0.0 0.0 2.4848083448933725e-17
-1.4600647354279346 47.15932050354512 6.321300853472045 6.403251580968304 -1.463762962798433 9.76164211489675 10.531946435238009 -29.982155842528428 21.70913422082676 -23.163773808568745 54.682782293020516 -7.8728330808360205 0.0 0.0 3.9756933518293955e-16 26.230930989023623 -9.67500293631194 -0.83476861999519 -34.41120635084353 20.133922515867592 15.976815916993766 -9.93923337957349e-17 -2.855676682088115e-34 3.2923710569837183e-16 8.889658847819197e-16 6.737136854161134 -1.5706814149540734e-15 -0.4728484838197437 0.13144267499809056 -4.678496766368482 0.9976946241036324 -5.184624082321336 29.087602250515683 0.0 0.0 2.3978400528221045e-15 -73.24855426342133 -78.04980262302567 -44.618519074829955 -1.732802081423926e-15 1.2012934680481979e-14 -46.799008580410394 0.0 0.0 1.5902773407317584e-15 62.127300606215734 38.72681961230411 2.952024437529954 2.5850822753549746e-15 -1.852910605351764e-15 108.73632806437034 3.1805546814635168e-15 8.827812596100317e-32 3.1805546814635168e-15 0.0 0.0 2.4848083448933725e-16
-1.4804208226225313 47.92889492706537 6.159460915895175 7.335628847607009 -1.3328346340578883 9.111926613006899 9.524801276147848 -29.34587420106336 20.83048001470848 -20.733695240227952 52.48315248207236 -10.305727070930626 0.0 0.0 0.0 26.35577063501683 -9.93642220334512 -0.3235241930289712 -34.92081437877898 19.715409747363424 16.762650691360466 -9.93923337957349e-17 4.1218729467875625e-34 -4.752195959608575e-16 2.222354838014848e-15 6.998631042224196 2.739416186518874e-15 -0.8176775401328816 0.04190650646968104 -4.467532232388802 0.3112835225797384 -5.549093249456589 26.30700685050726 0.0 0.0 -2.435112177995505e-15 -76.67675107170867 -78.17371627943449 -46.86583655869419 5.246169285376576e-15 1.4107673649071086e-16 -46.16634678705373 0.0 0.0 1.5902773407317584e-15 63.17203893025505 35.239797423533254 2.9222299282639135 -7.276000305709099e-15 -1.0436219088338122e-14 110.23255549694953 0.0 0.0 0.0 -7.241565020238542e-33 -7.951386703658792e-16 -1.0436195048552165e-15
